<?xml version="1.0" encoding="UTF-8"?>
<svg id="_图层_1" data-name="图层_1" xmlns="http://www.w3.org/2000/svg" version="1.1" viewBox="0 0 1000 1000">
  <!-- Generator: Adobe Illustrator 30.2.1, SVG Export Plug-In . SVG Version: 2.1.1 Build 1)  -->
  <defs>
    <style>
      .st0 {
        fill: #00b9fc;
      }

      .st1 {
        fill: #0c66bf;
      }
    </style>
  </defs>
  <path class="st0" d="M893.68,563.8c-24.38,29.21-68.34,73.49-127.95,93.45-.04.01-.07.02-.11.03-15.53,5.19-32.13,8.72-49.72,9.91-8.96.6-17.68.56-26.26-.05-47.42-3.38-90.56-24.28-145.66-50.98-.01,0-.02-.01-.03-.01-19.53-9.46-34.65-17.97-47.2-25.73-42.39-26.23-55.53-44.04-110.76-62.05-.02-.01-.03-.01-.05-.02-67.92-22.12-124.5-20.11-145.36-18.72h-.01c-48.36,3.22-87.12,15.2-112.77,25.23,86.35-131.76,172.7-263.53,259.05-395.29,5.59-6.49,51.11-57.56,124.24-54.35,64.11,2.81,102.69,45.28,109.41,52.94l273.18,425.64Z"/>
  <path class="st1" d="M484.97,632.98c-65.92,64.19-131.85,128.38-197.77,192.57-26.63,25.93-61.12,42.59-98.1,46.24-37.01,3.64-73.33-5.47-101.54-27.04-56.51-43.22-54.86-116.88-54.35-129.18,2.65-63.85,42.53-105.27,54.35-117.18,12-12.09,25.03-21.9,38.64-29.81,24.87-10.78,65.99-24.95,118.44-26.59,21-.66,73.88-1.76,131.58,23.59,38.06,16.72,39.64,28,108.14,66.8.01,0,.01.01.02.01.2.2.39.4.59.59Z"/>
  <path class="st1" d="M927.09,821.06c-55.44,55.33-135.59,35.55-141.88,33.88-26.25-6.95-44.21-19.85-63.53-35.29-37.16-29.71-87.58-75.12-149.26-143.32-1.58-1.75-3.18-3.52-4.78-5.31,32.73,13.83,110.75,46.63,199.92,26.51,8.5-1.92,20.18-4.64,33.65-9.58,38.7-17.88,68.78-44.17,88.99-65.48,9.67-12.6,16.29-24.27,20.65-32.94,1.14,1.56,2.28,3.12,3.43,4.68h0c8.9,12.17,17.78,24.33,26.67,36.49,10.5,14.36,18.01,30.69,21.87,48.05,1.35,6.04,2.43,12.55,3.09,19.49,1.3,13.58,7.35,76.74-38.82,122.82Z"/>
</svg>